<?xml version="1.0" standalone="no"?><!DOCTYPE svg PUBLIC "-//W3C//DTD SVG 1.1//EN" "http://www.w3.org/Graphics/SVG/1.1/DTD/svg11.dtd"><svg t="1652898234459" class="icon" viewBox="0 0 1024 1024" version="1.1" xmlns="http://www.w3.org/2000/svg" p-id="2736" xmlns:xlink="http://www.w3.org/1999/xlink" width="200" height="200"><defs><style type="text/css">@font-face { font-family: feedback-iconfont; src: url("//at.alicdn.com/t/font_1031158_u69w8yhxdu.woff2?t=1630033759944") format("woff2"), url("//at.alicdn.com/t/font_1031158_u69w8yhxdu.woff?t=1630033759944") format("woff"), url("//at.alicdn.com/t/font_1031158_u69w8yhxdu.ttf?t=1630033759944") format("truetype"); }
</style></defs><path d="M808.48 894h-593a91.74 91.74 0 0 1-91.64-91.65V245.23a91.74 91.74 0 0 1 91.64-91.64H512a27 27 0 0 1 0 53.91H215.52a37.78 37.78 0 0 0-37.74 37.73v557.15a37.78 37.78 0 0 0 37.74 37.74h593a37.78 37.78 0 0 0 37.74-37.74V551.13a26.95 26.95 0 0 1 53.9 0v251.25A91.74 91.74 0 0 1 808.48 894z" fill="#142E4F" p-id="2737"></path><path d="M719.54 517.45a26.95 26.95 0 0 1-19.83-45.19l131.56-143.15a14.84 14.84 0 0 0-0.88-20.78L687.25 176.77a27 27 0 0 1 36.47-39.69l143.15 131.56a68.75 68.75 0 0 1 4.13 96.95L739.4 508.73a26.89 26.89 0 0 1-19.86 8.72z" fill="#FF9600" p-id="2738"></path><path d="M369.45 759.29a27 27 0 0 1-26.86-25.07c-0.13-1.82-3-45.27 9-104.44 15.93-78.47 50.93-148.35 101.23-202.08 87.88-93.93 220.8-141.09 394.88-140.22a27 27 0 0 1-0.13 53.91h-0.15c-158.18-0.83-277.59 40.46-354.85 122.68-43.91 46.72-73.45 105.45-87.8 174.55-10.89 52.44-8.44 91.44-8.41 91.82a26.93 26.93 0 0 1-25 28.78c-0.62 0.04-1.27 0.07-1.91 0.07z" fill="#FF9600" p-id="2739"></path></svg>