<?xml version="1.0" standalone="no"?><!DOCTYPE svg PUBLIC "-//W3C//DTD SVG 1.1//EN" "http://www.w3.org/Graphics/SVG/1.1/DTD/svg11.dtd"><svg t="1655572574566" class="icon" viewBox="0 0 1024 1024" version="1.1" xmlns="http://www.w3.org/2000/svg" p-id="2158" xmlns:xlink="http://www.w3.org/1999/xlink" width="200" height="200"><defs><style type="text/css">@font-face { font-family: feedback-iconfont; src: url("//at.alicdn.com/t/font_1031158_u69w8yhxdu.woff2?t=1630033759944") format("woff2"), url("//at.alicdn.com/t/font_1031158_u69w8yhxdu.woff?t=1630033759944") format("woff"), url("//at.alicdn.com/t/font_1031158_u69w8yhxdu.ttf?t=1630033759944") format("truetype"); }
</style></defs><path d="M820.113403 204.239638c-169.888272-169.918971-446.339558-169.918971-616.22783 0-169.921018 169.890318-169.921018 446.339558 0 616.22783 169.888272 169.921018 446.339558 169.921018 616.22783 0C990.035444 650.579195 990.035444 374.130979 820.113403 204.239638zM775.903505 776.257569c-145.526421 145.524374-382.315382 145.493675-527.808034 0-145.524374-145.524374-145.524374-382.281613 0-527.805988 145.492652-145.492652 382.281613-145.525398 527.808034 0C921.397181 393.945257 921.397181 630.764917 775.903505 776.257569z" p-id="2159" fill="#132288"></path><path d="M768.413927 355.989807c-11.630898-10.934027-31.792077-10.301623-42.757826 1.359974L455.180923 645.302005l-144.45195-142.30096c-11.500938-11.345396-31.44313-11.250228-42.819225 0.252757-5.687536 5.782703-8.753361 13.399171-8.721639 21.519106 0.063445 8.058536 3.317559 15.642259 9.069563 21.268396l166.034501 163.601078 0.980327 0.946558c0.124843 0.12689 0.252757 0.252757 0.3776 0.346901l0 0.063445c1.928932 1.706875 3.949962 2.750647 5.815449 3.729951l3.476171 2.02103c3.603061 1.390673 7.300266 2.085498 11.06194 2.085498 4.108574 0 8.025791-0.788969 11.722996-2.368954 1.612731-0.663102 2.717901-1.549286 4.296863-2.592035 1.423419-0.821715 3.350304-1.959631 5.183046-3.664459l292.50389-311.400263c5.560646-5.846148 8.467859-13.527085 8.247848-21.585621C777.736247 369.105522 774.324544 361.584222 768.413927 355.989807z" p-id="2160" fill="#132288"></path></svg>